<?xml version="1.0" standalone="no"?>
<!DOCTYPE svg PUBLIC "-//W3C//DTD SVG 20010904//EN"
 "http://www.w3.org/TR/2001/REC-SVG-20010904/DTD/svg10.dtd">
<svg version="1.0" xmlns="http://www.w3.org/2000/svg"
 width="1024.000000pt" height="1024.000000pt" viewBox="0 0 1024.000000 1024.000000"
 preserveAspectRatio="xMidYMid meet">
<metadata>
Created by potrace 1.11, written by Peter Selinger 2001-2013
</metadata>
<g transform="translate(0.000000,1024.000000) scale(0.100000,-0.100000)"
fill="#000000" stroke="none">
<path d="M8281 9414 c-60 -14 -165 -63 -202 -94 -71 -62 -844 -839 -873 -879
-60 -82 -101 -181 -187 -441 -45 -140 -83 -257 -84 -260 -22 -88 -10 -75 -668
-733 l-643 -643 -74 48 c-205 132 -474 245 -680 287 -93 19 -104 21 -140 26
-199 26 -414 22 -570 -10 -282 -59 -493 -178 -721 -405 -179 -179 -251 -287
-338 -515 -17 -44 -31 -84 -31 -88 0 -10 -70 -157 -81 -171 -77 -98 -118 -141
-171 -180 -34 -26 -71 -54 -80 -61 -57 -47 -221 -106 -329 -120 -28 -4 -59 -8
-68 -10 -9 -1 -41 -6 -71 -10 -247 -32 -539 -148 -750 -297 -183 -131 -380
-358 -494 -570 -40 -74 -106 -225 -110 -253 -1 -5 -4 -14 -7 -20 -4 -5 -10
-23 -14 -40 -4 -16 -9 -39 -12 -50 -65 -261 -75 -556 -29 -850 94 -592 389
-1113 892 -1575 82 -75 78 -72 211 -173 55 -42 106 -77 112 -77 6 0 11 -4 11
-10 0 -5 7 -10 15 -10 8 0 15 -4 15 -10 0 -5 6 -10 14 -10 8 0 16 -4 18 -9 5
-15 283 -167 338 -186 9 -3 45 -18 85 -35 68 -30 256 -87 355 -109 108 -23
208 -41 218 -39 4 1 26 -2 49 -6 61 -11 139 -15 298 -15 141 0 154 1 255 13
190 24 469 115 592 192 20 13 42 24 48 24 5 0 10 3 10 8 0 4 18 16 40 26 22
11 40 23 40 28 0 5 8 12 18 15 9 4 29 16 44 27 14 12 40 32 58 45 108 83 277
275 336 381 10 19 22 37 25 40 24 21 158 338 174 411 36 168 45 213 50 259 4
30 8 57 10 60 1 3 6 31 9 63 13 111 82 276 145 347 17 19 31 38 31 41 0 9 83
92 135 135 80 65 146 100 277 148 138 50 213 85 276 127 24 16 46 29 51 29 4
0 23 14 41 30 18 17 37 30 41 30 16 0 240 231 290 300 193 264 268 489 274
825 8 388 -98 760 -311 1092 -19 29 -34 57 -34 62 0 5 -7 14 -16 22 -13 11 68
96 628 656 354 354 646 643 650 643 4 0 19 5 35 12 15 6 33 12 38 14 31 7 537
180 573 195 111 48 179 107 605 533 418 418 428 429 466 509 41 85 52 131 56
230 2 49 -1 78 -19 167 -1 8 -10 32 -19 54 -9 21 -17 42 -17 47 0 5 -3 9 -8 9
-4 0 -13 13 -20 28 -15 35 -608 629 -648 650 -16 8 -31 18 -34 22 -7 11 -78
39 -130 52 -64 16 -205 17 -269 2z m-3737 -4323 c208 -57 391 -202 496 -394
32 -59 67 -150 76 -202 17 -91 20 -128 18 -196 -5 -212 -68 -376 -199 -518
-175 -192 -357 -273 -604 -272 -64 0 -125 2 -136 5 -92 21 -117 28 -163 45
-84 31 -197 107 -270 181 -85 87 -87 89 -131 163 -70 117 -101 230 -106 387
-7 232 71 429 234 590 100 99 180 151 305 197 119 44 347 50 480 14z"/>
</g>
</svg>
